<?xml version="1.0" encoding="UTF-8" standalone="no"?>
<svg
   xmlns:dc="http://purl.org/dc/elements/1.1/"
   xmlns:cc="http://creativecommons.org/ns#"
   xmlns:rdf="http://www.w3.org/1999/02/22-rdf-syntax-ns#"
   xmlns:svg="http://www.w3.org/2000/svg"
   xmlns="http://www.w3.org/2000/svg"
   xmlns:sodipodi="http://sodipodi.sourceforge.net/DTD/sodipodi-0.dtd"
   xmlns:inkscape="http://www.inkscape.org/namespaces/inkscape"
   version="1.1"
   viewBox="0 0 288.1774 128.89285"
   fill="none"
   stroke="none"
   stroke-linecap="square"
   stroke-miterlimit="10"
   id="svg2307"
   sodipodi:docname="dphpc-dynamic-priority-diagram.svg"
   width="288.1774"
   height="128.89285"
   inkscape:version="1.0.1 (3bc2e813f5, 2020-09-07)">
  <metadata
     id="metadata2313">
    <rdf:RDF>
      <cc:Work
         rdf:about="">
        <dc:format>image/svg+xml</dc:format>
        <dc:type
           rdf:resource="http://purl.org/dc/dcmitype/StillImage" />
        <dc:title></dc:title>
      </cc:Work>
    </rdf:RDF>
  </metadata>
  <defs
     id="defs2311" />
  <sodipodi:namedview
     pagecolor="#ffffff"
     bordercolor="#666666"
     borderopacity="1"
     objecttolerance="10"
     gridtolerance="10"
     guidetolerance="10"
     inkscape:pageopacity="0"
     inkscape:pageshadow="2"
     inkscape:window-width="3744"
     inkscape:window-height="2064"
     id="namedview2309"
     showgrid="false"
     showguides="true"
     inkscape:guide-bbox="true"
     fit-margin-top="0"
     fit-margin-left="0"
     fit-margin-right="0"
     fit-margin-bottom="0"
     inkscape:zoom="3.7333333"
     inkscape:cx="185.58314"
     inkscape:cy="142.83731"
     inkscape:window-x="3885"
     inkscape:window-y="45"
     inkscape:window-maximized="0"
     inkscape:current-layer="svg2307"
     inkscape:document-rotation="0" />
  <clipPath
     id="gb32fa7862d_0_0.0">
    <path
       d="M 0,0 H 960 V 540 H 0 Z"
       clip-rule="nonzero"
       id="path1976" />
  </clipPath>
  <path
     fill="#000000"
     fill-opacity="0"
     d="m 155.04603,19.975415 -9.05512,8.91339"
     fill-rule="evenodd"
     id="path1981"
     style="stroke-width:0.5" />
  <path
     stroke="#595959"
     stroke-width="0.5"
     stroke-linejoin="round"
     stroke-linecap="butt"
     d="m 155.04604,19.97542 -6.91715,6.80886"
     fill-rule="evenodd"
     id="path1983" />
  <path
     fill="#595959"
     stroke="#595959"
     stroke-width="0.5"
     stroke-linecap="butt"
     d="m 147.54955,26.19572 -1.0377,2.18032 2.19641,-1.003195 z"
     fill-rule="evenodd"
     id="path1985" />
  <path
     fill="#000000"
     fill-opacity="0"
     d="m 155.04603,47.59615 -9.05512,8.91339"
     fill-rule="evenodd"
     id="path1987"
     style="stroke-width:0.5" />
  <path
     stroke="#595959"
     stroke-width="0.5"
     stroke-linejoin="round"
     stroke-linecap="butt"
     d="m 155.04604,47.59615 -6.91715,6.80887"
     fill-rule="evenodd"
     id="path1989" />
  <path
     fill="#595959"
     stroke="#595959"
     stroke-width="0.5"
     stroke-linecap="butt"
     d="m 147.54955,53.81645 -1.0377,2.18032 2.19641,-1.00319 z"
     fill-rule="evenodd"
     id="path1991" />
  <path
     fill="#000000"
     fill-opacity="0"
     d="m 155.10376,75.30284 -9.05511,8.91339"
     fill-rule="evenodd"
     id="path1993"
     style="stroke-width:0.5" />
  <path
     stroke="#595959"
     stroke-width="0.5"
     stroke-linejoin="round"
     stroke-linecap="butt"
     d="m 155.10379,75.30284 -6.91715,6.80887"
     fill-rule="evenodd"
     id="path1995" />
  <path
     fill="#595959"
     stroke="#595959"
     stroke-width="0.5"
     stroke-linecap="butt"
     d="m 147.60729,81.52315 -1.03771,2.18031 2.19641,-1.00319 z"
     fill-rule="evenodd"
     id="path1997" />
  <path
     fill="#000000"
     fill-opacity="0"
     d="m 145.99212,33.78644 9.05511,8.91339"
     fill-rule="evenodd"
     id="path1999"
     style="stroke-width:0.5" />
  <path
     stroke="#595959"
     stroke-width="0.5"
     stroke-linejoin="round"
     stroke-linecap="butt"
     d="m 145.9921,33.78644 6.91715,6.80887"
     fill-rule="evenodd"
     id="path2001" />
  <path
     fill="#595959"
     stroke="#595959"
     stroke-width="0.5"
     stroke-linecap="butt"
     d="m 152.32989,41.18387 2.19642,1.00319 -1.03772,-2.18032 z"
     fill-rule="evenodd"
     id="path2003" />
  <path
     fill="#000000"
     fill-opacity="0"
     d="m 145.99212,61.44917 9.05511,8.91338"
     fill-rule="evenodd"
     id="path2005"
     style="stroke-width:0.5" />
  <path
     stroke="#595959"
     stroke-width="0.5"
     stroke-linejoin="round"
     stroke-linecap="butt"
     d="m 145.9921,61.44917 6.91715,6.80886"
     fill-rule="evenodd"
     id="path2007" />
  <path
     fill="#595959"
     stroke="#595959"
     stroke-width="0.5"
     stroke-linecap="butt"
     d="m 152.32989,68.8466 2.19642,1.00319 -1.03772,-2.18033 z"
     fill-rule="evenodd"
     id="path2009" />
  <path
     fill="#000000"
     fill-opacity="0"
     d="m 146.54935,89.1552 9.05513,8.91339"
     fill-rule="evenodd"
     id="path2011"
     style="stroke-width:0.5" />
  <path
     stroke="#595959"
     stroke-width="0.5"
     stroke-linejoin="round"
     stroke-linecap="butt"
     d="m 146.54935,89.15521 6.91715,6.80887"
     fill-rule="evenodd"
     id="path2013" />
  <path
     fill="#595959"
     stroke="#595959"
     stroke-width="0.5"
     stroke-linecap="butt"
     d="m 152.88714,96.55263 2.19641,1.00321 -1.03771,-2.18033 z"
     fill-rule="evenodd"
     id="path2015" />
  <path
     fill="#f4cccc"
     d="m 125.95214,100.50459 v 0 c 0,-1.91342 1.57582,-3.46457 3.51968,-3.46457 v 0 c 0.93349,0 1.82874,0.36502 2.4888,1.01476 0.66007,0.64973 1.03089,1.53096 1.03089,2.44981 v 0 c 0,1.91344 -1.57581,3.46457 -3.51969,3.46457 v 0 c -1.94386,0 -3.51968,-1.55113 -3.51968,-3.46457 z"
     fill-rule="evenodd"
     id="path2017"
     style="stroke-width:0.5" />
  <path
     stroke="#595959"
     stroke-width="0.5"
     stroke-linejoin="round"
     stroke-linecap="butt"
     d="m 125.95214,100.50459 v 0 c 0,-1.91342 1.57582,-3.46457 3.51968,-3.46457 v 0 c 0.93349,0 1.82874,0.36502 2.4888,1.01476 0.66007,0.64973 1.03089,1.53096 1.03089,2.44981 v 0 c 0,1.91344 -1.57581,3.46457 -3.51969,3.46457 v 0 c -1.94386,0 -3.51968,-1.55113 -3.51968,-3.46457 z"
     fill-rule="evenodd"
     id="path2019" />
  <path
     fill="#f4cccc"
     d="m 112.09388,114.25918 v 0 c 0,-1.91342 1.57582,-3.46457 3.51968,-3.46457 v 0 c 0.93347,0 1.82872,0.36502 2.48879,1.01476 0.66008,0.64973 1.0309,1.53096 1.0309,2.44981 v 0 c 0,1.91344 -1.57583,3.46457 -3.51969,3.46457 v 0 c -1.94386,0 -3.51968,-1.55113 -3.51968,-3.46457 z"
     fill-rule="evenodd"
     id="path2021"
     style="stroke-width:0.5" />
  <path
     stroke="#595959"
     stroke-width="0.5"
     stroke-linejoin="round"
     stroke-linecap="butt"
     d="m 112.09388,114.25918 v 0 c 0,-1.91342 1.57582,-3.46457 3.51968,-3.46457 v 0 c 0.93347,0 1.82872,0.36502 2.48879,1.01476 0.66008,0.64973 1.0309,1.53096 1.0309,2.44981 v 0 c 0,1.91344 -1.57583,3.46457 -3.51969,3.46457 v 0 c -1.94386,0 -3.51968,-1.55113 -3.51968,-3.46457 z"
     fill-rule="evenodd"
     id="path2023" />
  <path
     fill="#f4cccc"
     d="m 140.09913,86.74934 v 0 c 0,-1.91342 1.57582,-3.46457 3.51968,-3.46457 v 0 c 0.93347,0 1.82872,0.36502 2.48879,1.01476 0.66008,0.64973 1.0309,1.53096 1.0309,2.44981 v 0 c 0,1.91344 -1.57583,3.46457 -3.51969,3.46457 v 0 c -1.94386,0 -3.51968,-1.55113 -3.51968,-3.46457 z"
     fill-rule="evenodd"
     id="path2025"
     style="stroke-width:0.5" />
  <path
     stroke="#595959"
     stroke-width="0.5"
     stroke-linejoin="round"
     stroke-linecap="butt"
     d="m 140.09913,86.74934 v 0 c 0,-1.91342 1.57582,-3.46457 3.51968,-3.46457 v 0 c 0.93347,0 1.82872,0.36502 2.48879,1.01476 0.66008,0.64973 1.0309,1.53096 1.0309,2.44981 v 0 c 0,1.91344 -1.57583,3.46457 -3.51969,3.46457 v 0 c -1.94386,0 -3.51968,-1.55113 -3.51968,-3.46457 z"
     fill-rule="evenodd"
     id="path2027" />
  <path
     fill="#000000"
     fill-opacity="0"
     d="M 0.86944605,116.76032 45.625356,73.42174"
     fill-rule="evenodd"
     id="path2029"
     style="stroke-width:0.5" />
  <path
     stroke="#595959"
     stroke-width="1.5"
     stroke-linejoin="round"
     stroke-linecap="butt"
     d="M 0.52064605,116.73509 45.447376,73.40576 l 11.49366,10.7809"
     fill-rule="evenodd"
     id="path2031"
     sodipodi:nodetypes="ccc" />
  <path
     fill="#000000"
     fill-opacity="0"
     d="M 61.912176,84.18013 98.920046,47.59746"
     fill-rule="evenodd"
     id="path2033"
     style="stroke-width:0.5" />
  <path
     stroke="#595959"
     stroke-width="1.5"
     stroke-linejoin="round"
     stroke-linecap="butt"
     d="M 61.912176,84.18013 98.920046,47.59746"
     fill-rule="evenodd"
     id="path2035" />
  <path
     fill="#000000"
     fill-opacity="0"
     d="m 103.89641,47.59546 23.08663,22.72441"
     fill-rule="evenodd"
     id="path2037"
     style="stroke-width:0.5" />
  <path
     stroke="#595959"
     stroke-width="1.5"
     stroke-linejoin="round"
     stroke-linecap="butt"
     d="m 103.89641,47.59546 23.08663,22.72441"
     fill-rule="evenodd"
     id="path2039" />
  <path
     fill="#000000"
     fill-opacity="0"
     d="m 197.35109,33.06741 90.31497,84.17322"
     fill-rule="evenodd"
     id="path2041"
     style="stroke-width:0.5" />
  <path
     fill="#000000"
     fill-opacity="0"
     d="M 159.99999,70.22301 196.77165,33.34112"
     fill-rule="evenodd"
     id="path2045"
     style="stroke-width:0.5" />
  <path
     stroke="#595959"
     stroke-width="1.5"
     stroke-linejoin="round"
     stroke-linecap="butt"
     d="m 159.99999,70.22301 37.3511,-37.1556 90.31497,84.17322"
     fill-rule="evenodd"
     id="path2047"
     sodipodi:nodetypes="ccc" />
  <path
     fill="#000000"
     fill-opacity="0"
     d="m 45.618196,73.41501 11.32284,10.77165"
     fill-rule="evenodd"
     id="path2049"
     style="stroke-width:0.5" />
  <path
     fill="#000000"
     fill-opacity="0"
     d="m 145.99212,61.46426 9.05511,8.85039"
     fill-rule="evenodd"
     id="path2053"
     style="stroke-width:0.5" />
  <path
     stroke="#595959"
     stroke-width="1.5"
     stroke-linejoin="round"
     stroke-linecap="butt"
     d="m 145.99212,61.46426 9.05511,8.85039"
     fill-rule="evenodd"
     id="path2055" />
  <path
     fill="#f4cccc"
     d="m 113.90129,113.35471 28.18896,-28.18897 3.03937,3.03937 -28.18896,28.18899 z"
     fill-rule="evenodd"
     id="path2057"
     style="stroke-width:0.5" />
  <path
     fill="#f4cccc"
     d="m 31.271036,114.32593 13.92125,-13.92126 14.56693,14.56692 -13.92125,13.92127 z"
     fill-rule="evenodd"
     id="path2059"
     style="stroke-width:0.5" />
  <path
     fill="#f4cccc"
     d="M 72.891766,100.5871 101.08075,72.39812 115.64768,86.96504 87.458696,115.15402 Z"
     fill-rule="evenodd"
     id="path2061"
     style="stroke-width:0.5" />
  <path
     fill="#000000"
     fill-opacity="0"
     d="m -304.58862,-200.25387 h 894.55115 v 60.12598 h -894.55115 z"
     fill-rule="evenodd"
     id="path2063" />
  <path
     fill="#000000"
     fill-opacity="0"
     d="m 552.18387,242.60091 h 57.60632 v 41.32284 h -57.60632 z"
     fill-rule="evenodd"
     id="path2067" />
  <path
     fill="#f4cccc"
     d="m 139.98364,3.71457 v 0 c 0,-1.91343 1.57582,-3.46457 3.51968,-3.46457 v 0 c 0.93349,0 1.82874,0.36502 2.4888,1.014755 0.66007,0.64973 1.0309,1.530955 1.0309,2.449815 v 0 c 0,1.91343 -1.57582,3.46457 -3.5197,3.46457 v 0 c -1.94386,0 -3.51968,-1.55114 -3.51968,-3.46457 z"
     fill-rule="evenodd"
     id="path2071"
     style="stroke-width:0.5" />
  <path
     stroke="#595959"
     stroke-width="0.5"
     stroke-linejoin="round"
     stroke-linecap="butt"
     d="m 139.98364,3.71457 v 0 c 0,-1.91343 1.57582,-3.46457 3.51968,-3.46457 v 0 c 0.93349,0 1.82874,0.36502 2.4888,1.014755 0.66007,0.64973 1.0309,1.530955 1.0309,2.449815 v 0 c 0,1.91343 -1.57582,3.46457 -3.5197,3.46457 v 0 c -1.94386,0 -3.51968,-1.55114 -3.51968,-3.46457 z"
     fill-rule="evenodd"
     id="path2073" />
  <path
     fill="#f4cccc"
     d="m 125.95214,17.5256 v 0 c 0,-1.91343 1.57582,-3.46457 3.51968,-3.46457 v 0 c 0.93349,0 1.82874,0.365015 2.4888,1.01475 0.66007,0.649735 1.03089,1.53096 1.03089,2.44982 v 0 c 0,1.91342 -1.57581,3.46456 -3.51969,3.46456 v 0 c -1.94386,0 -3.51968,-1.55114 -3.51968,-3.46456 z"
     fill-rule="evenodd"
     id="path2075"
     style="stroke-width:0.5" />
  <path
     stroke="#595959"
     stroke-width="0.5"
     stroke-linejoin="round"
     stroke-linecap="butt"
     d="m 125.95214,17.5256 v 0 c 0,-1.91343 1.57582,-3.46457 3.51968,-3.46457 v 0 c 0.93349,0 1.82874,0.365015 2.4888,1.01475 0.66007,0.649735 1.03089,1.53096 1.03089,2.44982 v 0 c 0,1.91342 -1.57581,3.46456 -3.51969,3.46456 v 0 c -1.94386,0 -3.51968,-1.55114 -3.51968,-3.46456 z"
     fill-rule="evenodd"
     id="path2077" />
  <path
     fill="#d9ead3"
     d="m 154.01514,17.5256 v 0 c 0,-1.91343 1.5758,-3.46457 3.51968,-3.46457 v 0 c 0.93347,0 1.82872,0.365015 2.48879,1.01475 0.66006,0.649735 1.03088,1.53096 1.03088,2.44982 v 0 c 0,1.91342 -1.57581,3.46456 -3.51967,3.46456 v 0 c -1.94388,0 -3.51968,-1.55114 -3.51968,-3.46456 z"
     fill-rule="evenodd"
     id="path2079"
     style="stroke-width:0.5" />
  <path
     stroke="#595959"
     stroke-width="0.5"
     stroke-linejoin="round"
     stroke-linecap="butt"
     d="m 154.01514,17.5256 v 0 c 0,-1.91343 1.5758,-3.46457 3.51968,-3.46457 v 0 c 0.93347,0 1.82872,0.365015 2.48879,1.01475 0.66006,0.649735 1.03088,1.53096 1.03088,2.44982 v 0 c 0,1.91342 -1.57581,3.46456 -3.51967,3.46456 v 0 c -1.94388,0 -3.51968,-1.55114 -3.51968,-3.46456 z"
     fill-rule="evenodd"
     id="path2081" />
  <path
     fill="#f4cccc"
     d="m 111.92064,31.33662 v 0 c 0,-1.91343 1.57582,-3.46457 3.51968,-3.46457 v 0 c 0.93349,0 1.82872,0.36502 2.4888,1.01475 0.66007,0.649735 1.03089,1.53096 1.03089,2.44982 v 0 c 0,1.91343 -1.57581,3.46457 -3.51969,3.46457 v 0 c -1.94386,0 -3.51968,-1.55114 -3.51968,-3.46457 z"
     fill-rule="evenodd"
     id="path2083"
     style="stroke-width:0.5" />
  <path
     stroke="#595959"
     stroke-width="0.5"
     stroke-linejoin="round"
     stroke-linecap="butt"
     d="m 111.92064,31.33662 v 0 c 0,-1.91343 1.57582,-3.46457 3.51968,-3.46457 v 0 c 0.93349,0 1.82872,0.36502 2.4888,1.01475 0.66007,0.649735 1.03089,1.53096 1.03089,2.44982 v 0 c 0,1.91343 -1.57581,3.46457 -3.51969,3.46457 v 0 c -1.94386,0 -3.51968,-1.55114 -3.51968,-3.46457 z"
     fill-rule="evenodd"
     id="path2085" />
  <path
     fill="#f4cccc"
     d="m 139.98364,31.33662 v 0 c 0,-1.91343 1.57582,-3.46457 3.51968,-3.46457 v 0 c 0.93349,0 1.82874,0.36502 2.4888,1.01475 0.66007,0.649735 1.0309,1.53096 1.0309,2.44982 v 0 c 0,1.91343 -1.57582,3.46457 -3.5197,3.46457 v 0 c -1.94386,0 -3.51968,-1.55114 -3.51968,-3.46457 z"
     fill-rule="evenodd"
     id="path2087"
     style="stroke-width:0.5" />
  <path
     stroke="#595959"
     stroke-width="0.5"
     stroke-linejoin="round"
     stroke-linecap="butt"
     d="m 139.98364,31.33662 v 0 c 0,-1.91343 1.57582,-3.46457 3.51968,-3.46457 v 0 c 0.93349,0 1.82874,0.36502 2.4888,1.01475 0.66007,0.649735 1.0309,1.53096 1.0309,2.44982 v 0 c 0,1.91343 -1.57582,3.46457 -3.5197,3.46457 v 0 c -1.94386,0 -3.51968,-1.55114 -3.51968,-3.46457 z"
     fill-rule="evenodd"
     id="path2089" />
  <path
     fill="#f4cccc"
     d="m 97.889146,45.14764 v 0 c 0,-1.91343 1.57582,-3.46457 3.519684,-3.46457 v 0 c 0.93349,0 1.82872,0.36502 2.4888,1.01474 0.66007,0.64974 1.03089,1.53096 1.03089,2.44983 v 0 c 0,1.91342 -1.57583,3.46457 -3.51969,3.46457 v 0 c -1.943864,0 -3.519684,-1.55115 -3.519684,-3.46457 z"
     fill-rule="evenodd"
     id="path2091"
     style="stroke-width:0.5" />
  <path
     stroke="#595959"
     stroke-width="0.5"
     stroke-linejoin="round"
     stroke-linecap="butt"
     d="m 97.889146,45.14764 v 0 c 0,-1.91343 1.57582,-3.46457 3.519684,-3.46457 v 0 c 0.93349,0 1.82872,0.36502 2.4888,1.01474 0.66007,0.64974 1.03089,1.53096 1.03089,2.44983 v 0 c 0,1.91342 -1.57583,3.46457 -3.51969,3.46457 v 0 c -1.943864,0 -3.519684,-1.55115 -3.519684,-3.46457 z"
     fill-rule="evenodd"
     id="path2093" />
  <path
     fill="#f4cccc"
     d="m 125.95214,45.14764 v 0 c 0,-1.91343 1.57582,-3.46457 3.51968,-3.46457 v 0 c 0.93349,0 1.82874,0.36502 2.4888,1.01474 0.66007,0.64974 1.03089,1.53096 1.03089,2.44983 v 0 c 0,1.91342 -1.57581,3.46457 -3.51969,3.46457 v 0 c -1.94386,0 -3.51968,-1.55115 -3.51968,-3.46457 z"
     fill-rule="evenodd"
     id="path2095"
     style="stroke-width:0.5" />
  <path
     stroke="#595959"
     stroke-width="0.5"
     stroke-linejoin="round"
     stroke-linecap="butt"
     d="m 125.95214,45.14764 v 0 c 0,-1.91343 1.57582,-3.46457 3.51968,-3.46457 v 0 c 0.93349,0 1.82874,0.36502 2.4888,1.01474 0.66007,0.64974 1.03089,1.53096 1.03089,2.44983 v 0 c 0,1.91342 -1.57581,3.46457 -3.51969,3.46457 v 0 c -1.94386,0 -3.51968,-1.55115 -3.51968,-3.46457 z"
     fill-rule="evenodd"
     id="path2097" />
  <path
     fill="#d9ead3"
     d="m 154.01514,45.14764 v 0 c 0,-1.91343 1.5758,-3.46457 3.51968,-3.46457 v 0 c 0.93347,0 1.82872,0.36502 2.48879,1.01474 0.66006,0.64974 1.03088,1.53096 1.03088,2.44983 v 0 c 0,1.91342 -1.57581,3.46457 -3.51967,3.46457 v 0 c -1.94388,0 -3.51968,-1.55115 -3.51968,-3.46457 z"
     fill-rule="evenodd"
     id="path2099"
     style="stroke-width:0.5" />
  <path
     stroke="#595959"
     stroke-width="0.5"
     stroke-linejoin="round"
     stroke-linecap="butt"
     d="m 154.01514,45.14764 v 0 c 0,-1.91343 1.5758,-3.46457 3.51968,-3.46457 v 0 c 0.93347,0 1.82872,0.36502 2.48879,1.01474 0.66006,0.64974 1.03088,1.53096 1.03088,2.44983 v 0 c 0,1.91342 -1.57581,3.46457 -3.51967,3.46457 v 0 c -1.94388,0 -3.51968,-1.55115 -3.51968,-3.46457 z"
     fill-rule="evenodd"
     id="path2101" />
  <path
     fill="#d9ead3"
     d="m 182.07811,45.14764 v 0 c 0,-1.91343 1.57584,-3.46457 3.51969,-3.46457 v 0 c 0.9335,0 1.82873,0.36502 2.4888,1.01474 0.66006,0.64974 1.03088,1.53096 1.03088,2.44983 v 0 c 0,1.91342 -1.57581,3.46457 -3.51968,3.46457 v 0 c -1.94385,0 -3.51969,-1.55115 -3.51969,-3.46457 z"
     fill-rule="evenodd"
     id="path2103"
     style="stroke-width:0.5" />
  <path
     stroke="#595959"
     stroke-width="0.5"
     stroke-linejoin="round"
     stroke-linecap="butt"
     d="m 182.07811,45.14764 v 0 c 0,-1.91343 1.57584,-3.46457 3.51969,-3.46457 v 0 c 0.9335,0 1.82873,0.36502 2.4888,1.01474 0.66006,0.64974 1.03088,1.53096 1.03088,2.44983 v 0 c 0,1.91342 -1.57581,3.46457 -3.51968,3.46457 v 0 c -1.94385,0 -3.51969,-1.55115 -3.51969,-3.46457 z"
     fill-rule="evenodd"
     id="path2105" />
  <path
     fill="#d9ead3"
     d="m 168.04662,31.33662 v 0 c 0,-1.91343 1.57584,-3.46457 3.51969,-3.46457 v 0 c 0.9335,0 1.82873,0.36502 2.4888,1.01475 0.66006,0.649735 1.03088,1.53096 1.03088,2.44982 v 0 c 0,1.91343 -1.57581,3.46457 -3.51968,3.46457 v 0 c -1.94385,0 -3.51969,-1.55114 -3.51969,-3.46457 z"
     fill-rule="evenodd"
     id="path2107"
     style="stroke-width:0.5" />
  <path
     stroke="#595959"
     stroke-width="0.5"
     stroke-linejoin="round"
     stroke-linecap="butt"
     d="m 168.04662,31.33662 v 0 c 0,-1.91343 1.57584,-3.46457 3.51969,-3.46457 v 0 c 0.9335,0 1.82873,0.36502 2.4888,1.01475 0.66006,0.649735 1.03088,1.53096 1.03088,2.44982 v 0 c 0,1.91343 -1.57581,3.46457 -3.51968,3.46457 v 0 c -1.94385,0 -3.51969,-1.55114 -3.51969,-3.46457 z"
     fill-rule="evenodd"
     id="path2109" />
  <path
     fill="#f4cccc"
     d="m 69.826156,72.76968 v 0 c 0,-1.91342 1.57581,-3.46457 3.51969,-3.46457 v 0 c 0.93347,0 1.82872,0.36502 2.48878,1.01476 0.66008,0.64973 1.0309,1.53096 1.0309,2.44981 v 0 c 0,1.91344 -1.57582,3.46457 -3.51968,3.46457 v 0 c -1.94388,0 -3.51969,-1.55113 -3.51969,-3.46457 z"
     fill-rule="evenodd"
     id="path2111"
     style="stroke-width:0.5" />
  <path
     stroke="#595959"
     stroke-width="0.5"
     stroke-linejoin="round"
     stroke-linecap="butt"
     d="m 69.826156,72.76968 v 0 c 0,-1.91342 1.57581,-3.46457 3.51969,-3.46457 v 0 c 0.93347,0 1.82872,0.36502 2.48878,1.01476 0.66008,0.64973 1.0309,1.53096 1.0309,2.44981 v 0 c 0,1.91344 -1.57582,3.46457 -3.51968,3.46457 v 0 c -1.94388,0 -3.51969,-1.55113 -3.51969,-3.46457 z"
     fill-rule="evenodd"
     id="path2113" />
  <path
     fill="#f4cccc"
     d="m 97.889146,72.76968 v 0 c 0,-1.91342 1.57582,-3.46457 3.519684,-3.46457 v 0 c 0.93349,0 1.82872,0.36502 2.4888,1.01476 0.66007,0.64973 1.03089,1.53096 1.03089,2.44981 v 0 c 0,1.91344 -1.57583,3.46457 -3.51969,3.46457 v 0 c -1.943864,0 -3.519684,-1.55113 -3.519684,-3.46457 z"
     fill-rule="evenodd"
     id="path2115"
     style="stroke-width:0.5" />
  <path
     stroke="#595959"
     stroke-width="0.5"
     stroke-linejoin="round"
     stroke-linecap="butt"
     d="m 97.889146,72.76968 v 0 c 0,-1.91342 1.57582,-3.46457 3.519684,-3.46457 v 0 c 0.93349,0 1.82872,0.36502 2.4888,1.01476 0.66007,0.64973 1.03089,1.53096 1.03089,2.44981 v 0 c 0,1.91344 -1.57583,3.46457 -3.51969,3.46457 v 0 c -1.943864,0 -3.519684,-1.55113 -3.519684,-3.46457 z"
     fill-rule="evenodd"
     id="path2117" />
  <path
     fill="#f4cccc"
     d="m 125.95214,72.76968 v 0 c 0,-1.91342 1.57582,-3.46457 3.51968,-3.46457 v 0 c 0.93349,0 1.82874,0.36502 2.4888,1.01476 0.66007,0.64973 1.03089,1.53096 1.03089,2.44981 v 0 c 0,1.91344 -1.57581,3.46457 -3.51969,3.46457 v 0 c -1.94386,0 -3.51968,-1.55113 -3.51968,-3.46457 z"
     fill-rule="evenodd"
     id="path2119"
     style="stroke-width:0.5" />
  <path
     stroke="#595959"
     stroke-width="0.5"
     stroke-linejoin="round"
     stroke-linecap="butt"
     d="m 125.95214,72.76968 v 0 c 0,-1.91342 1.57582,-3.46457 3.51968,-3.46457 v 0 c 0.93349,0 1.82874,0.36502 2.4888,1.01476 0.66007,0.64973 1.03089,1.53096 1.03089,2.44981 v 0 c 0,1.91344 -1.57581,3.46457 -3.51969,3.46457 v 0 c -1.94386,0 -3.51968,-1.55113 -3.51968,-3.46457 z"
     fill-rule="evenodd"
     id="path2121" />
  <path
     fill="#d9ead3"
     d="m 154.01514,72.76968 v 0 c 0,-1.91342 1.5758,-3.46457 3.51968,-3.46457 v 0 c 0.93347,0 1.82872,0.36502 2.48879,1.01476 0.66006,0.64973 1.03088,1.53096 1.03088,2.44981 v 0 c 0,1.91344 -1.57581,3.46457 -3.51967,3.46457 v 0 c -1.94388,0 -3.51968,-1.55113 -3.51968,-3.46457 z"
     fill-rule="evenodd"
     id="path2123"
     style="stroke-width:0.5" />
  <path
     stroke="#595959"
     stroke-width="0.5"
     stroke-linejoin="round"
     stroke-linecap="butt"
     d="m 154.01514,72.76968 v 0 c 0,-1.91342 1.5758,-3.46457 3.51968,-3.46457 v 0 c 0.93347,0 1.82872,0.36502 2.48879,1.01476 0.66006,0.64973 1.03088,1.53096 1.03088,2.44981 v 0 c 0,1.91344 -1.57581,3.46457 -3.51967,3.46457 v 0 c -1.94388,0 -3.51968,-1.55113 -3.51968,-3.46457 z"
     fill-rule="evenodd"
     id="path2125" />
  <path
     fill="#d9ead3"
     d="m 182.07811,72.76968 v 0 c 0,-1.91342 1.57584,-3.46457 3.51969,-3.46457 v 0 c 0.9335,0 1.82873,0.36502 2.4888,1.01476 0.66006,0.64973 1.03088,1.53096 1.03088,2.44981 v 0 c 0,1.91344 -1.57581,3.46457 -3.51968,3.46457 v 0 c -1.94385,0 -3.51969,-1.55113 -3.51969,-3.46457 z"
     fill-rule="evenodd"
     id="path2127"
     style="stroke-width:0.5" />
  <path
     stroke="#595959"
     stroke-width="0.5"
     stroke-linejoin="round"
     stroke-linecap="butt"
     d="m 182.07811,72.76968 v 0 c 0,-1.91342 1.57584,-3.46457 3.51969,-3.46457 v 0 c 0.9335,0 1.82873,0.36502 2.4888,1.01476 0.66006,0.64973 1.03088,1.53096 1.03088,2.44981 v 0 c 0,1.91344 -1.57581,3.46457 -3.51968,3.46457 v 0 c -1.94385,0 -3.51969,-1.55113 -3.51969,-3.46457 z"
     fill-rule="evenodd"
     id="path2129" />
  <path
     fill="#d9ead3"
     d="m 210.14114,72.76968 v 0 c 0,-1.91342 1.5758,-3.46457 3.51968,-3.46457 v 0 c 0.93347,0 1.82871,0.36502 2.48877,1.01476 0.66007,0.64973 1.03092,1.53096 1.03092,2.44981 v 0 c 0,1.91344 -1.57584,3.46457 -3.51969,3.46457 v 0 c -1.94388,0 -3.51968,-1.55113 -3.51968,-3.46457 z"
     fill-rule="evenodd"
     id="path2131"
     style="stroke-width:0.5" />
  <path
     stroke="#595959"
     stroke-width="0.5"
     stroke-linejoin="round"
     stroke-linecap="butt"
     d="m 210.14114,72.76968 v 0 c 0,-1.91342 1.5758,-3.46457 3.51968,-3.46457 v 0 c 0.93347,0 1.82871,0.36502 2.48877,1.01476 0.66007,0.64973 1.03092,1.53096 1.03092,2.44981 v 0 c 0,1.91344 -1.57584,3.46457 -3.51969,3.46457 v 0 c -1.94388,0 -3.51968,-1.55113 -3.51968,-3.46457 z"
     fill-rule="evenodd"
     id="path2133" />
  <path
     fill="#f4cccc"
     d="m 139.98364,59.01443 v 0 c 0,-1.91342 1.57582,-3.46457 3.51968,-3.46457 v 0 c 0.93349,0 1.82874,0.36502 2.4888,1.01476 0.66007,0.64973 1.0309,1.53096 1.0309,2.44981 v 0 c 0,1.91344 -1.57582,3.46457 -3.5197,3.46457 v 0 c -1.94386,0 -3.51968,-1.55113 -3.51968,-3.46457 z"
     fill-rule="evenodd"
     id="path2135"
     style="stroke-width:0.5" />
  <path
     stroke="#595959"
     stroke-width="0.5"
     stroke-linejoin="round"
     stroke-linecap="butt"
     d="m 139.98364,59.01443 v 0 c 0,-1.91342 1.57582,-3.46457 3.51968,-3.46457 v 0 c 0.93349,0 1.82874,0.36502 2.4888,1.01476 0.66007,0.64973 1.0309,1.53096 1.0309,2.44981 v 0 c 0,1.91344 -1.57582,3.46457 -3.5197,3.46457 v 0 c -1.94386,0 -3.51968,-1.55113 -3.51968,-3.46457 z"
     fill-rule="evenodd"
     id="path2137" />
  <path
     fill="#d9ead3"
     d="m 168.04662,59.01443 v 0 c 0,-1.91342 1.57584,-3.46457 3.51969,-3.46457 v 0 c 0.9335,0 1.82873,0.36502 2.4888,1.01476 0.66006,0.64973 1.03088,1.53096 1.03088,2.44981 v 0 c 0,1.91344 -1.57581,3.46457 -3.51968,3.46457 v 0 c -1.94385,0 -3.51969,-1.55113 -3.51969,-3.46457 z"
     fill-rule="evenodd"
     id="path2139"
     style="stroke-width:0.5" />
  <path
     stroke="#595959"
     stroke-width="0.5"
     stroke-linejoin="round"
     stroke-linecap="butt"
     d="m 168.04662,59.01443 v 0 c 0,-1.91342 1.57584,-3.46457 3.51969,-3.46457 v 0 c 0.9335,0 1.82873,0.36502 2.4888,1.01476 0.66006,0.64973 1.03088,1.53096 1.03088,2.44981 v 0 c 0,1.91344 -1.57581,3.46457 -3.51968,3.46457 v 0 c -1.94385,0 -3.51969,-1.55113 -3.51969,-3.46457 z"
     fill-rule="evenodd"
     id="path2141" />
  <path
     fill="#d9ead3"
     d="m 196.10961,59.01443 v 0 c 0,-1.91342 1.57583,-3.46457 3.51968,-3.46457 v 0 c 0.9335,0 1.82874,0.36502 2.4888,1.01476 0.66007,0.64973 1.03092,1.53096 1.03092,2.44981 v 0 c 0,1.91344 -1.57584,3.46457 -3.51972,3.46457 v 0 c -1.94385,0 -3.51968,-1.55113 -3.51968,-3.46457 z"
     fill-rule="evenodd"
     id="path2143"
     style="stroke-width:0.5" />
  <path
     stroke="#595959"
     stroke-width="0.5"
     stroke-linejoin="round"
     stroke-linecap="butt"
     d="m 196.10961,59.01443 v 0 c 0,-1.91342 1.57583,-3.46457 3.51968,-3.46457 v 0 c 0.9335,0 1.82874,0.36502 2.4888,1.01476 0.66007,0.64973 1.03092,1.53096 1.03092,2.44981 v 0 c 0,1.91344 -1.57584,3.46457 -3.51972,3.46457 v 0 c -1.94385,0 -3.51968,-1.55113 -3.51968,-3.46457 z"
     fill-rule="evenodd"
     id="path2145" />
  <path
     fill="#f4cccc"
     d="m 41.763166,100.50459 v 0 c 0,-1.91342 1.57581,-3.46457 3.51969,-3.46457 v 0 c 0.93347,0 1.82872,0.36502 2.48878,1.01476 0.66007,0.64973 1.0309,1.53096 1.0309,2.44981 v 0 c 0,1.91344 -1.57582,3.46457 -3.51968,3.46457 v 0 c -1.94388,0 -3.51969,-1.55113 -3.51969,-3.46457 z"
     fill-rule="evenodd"
     id="path2147"
     style="stroke-width:0.5" />
  <path
     stroke="#595959"
     stroke-width="0.5"
     stroke-linejoin="round"
     stroke-linecap="butt"
     d="m 41.763166,100.50459 v 0 c 0,-1.91342 1.57581,-3.46457 3.51969,-3.46457 v 0 c 0.93347,0 1.82872,0.36502 2.48878,1.01476 0.66007,0.64973 1.0309,1.53096 1.0309,2.44981 v 0 c 0,1.91344 -1.57582,3.46457 -3.51968,3.46457 v 0 c -1.94388,0 -3.51969,-1.55113 -3.51969,-3.46457 z"
     fill-rule="evenodd"
     id="path2149" />
  <path
     fill="#f4cccc"
     d="m 69.826156,100.50459 v 0 c 0,-1.91342 1.57581,-3.46457 3.51969,-3.46457 v 0 c 0.93347,0 1.82872,0.36502 2.48878,1.01476 0.66008,0.64973 1.0309,1.53096 1.0309,2.44981 v 0 c 0,1.91344 -1.57582,3.46457 -3.51968,3.46457 v 0 c -1.94388,0 -3.51969,-1.55113 -3.51969,-3.46457 z"
     fill-rule="evenodd"
     id="path2151"
     style="stroke-width:0.5" />
  <path
     stroke="#595959"
     stroke-width="0.5"
     stroke-linejoin="round"
     stroke-linecap="butt"
     d="m 69.826156,100.50459 v 0 c 0,-1.91342 1.57581,-3.46457 3.51969,-3.46457 v 0 c 0.93347,0 1.82872,0.36502 2.48878,1.01476 0.66008,0.64973 1.0309,1.53096 1.0309,2.44981 v 0 c 0,1.91344 -1.57582,3.46457 -3.51968,3.46457 v 0 c -1.94388,0 -3.51969,-1.55113 -3.51969,-3.46457 z"
     fill-rule="evenodd"
     id="path2153" />
  <path
     fill="#f4cccc"
     d="m 97.889146,100.50459 v 0 c 0,-1.91342 1.57582,-3.46457 3.519684,-3.46457 v 0 c 0.93349,0 1.82872,0.36502 2.4888,1.01476 0.66007,0.64973 1.03089,1.53096 1.03089,2.44981 v 0 c 0,1.91344 -1.57583,3.46457 -3.51969,3.46457 v 0 c -1.943864,0 -3.519684,-1.55113 -3.519684,-3.46457 z"
     fill-rule="evenodd"
     id="path2155"
     style="stroke-width:0.5" />
  <path
     stroke="#595959"
     stroke-width="0.5"
     stroke-linejoin="round"
     stroke-linecap="butt"
     d="m 97.889146,100.50459 v 0 c 0,-1.91342 1.57582,-3.46457 3.519684,-3.46457 v 0 c 0.93349,0 1.82872,0.36502 2.4888,1.01476 0.66007,0.64973 1.03089,1.53096 1.03089,2.44981 v 0 c 0,1.91344 -1.57583,3.46457 -3.51969,3.46457 v 0 c -1.943864,0 -3.519684,-1.55113 -3.519684,-3.46457 z"
     fill-rule="evenodd"
     id="path2157" />
  <path
     fill="#d9ead3"
     d="m 154.01514,100.50459 v 0 c 0,-1.91342 1.5758,-3.46457 3.51968,-3.46457 v 0 c 0.93347,0 1.82872,0.36502 2.48879,1.01476 0.66006,0.64973 1.03088,1.53096 1.03088,2.44981 v 0 c 0,1.91344 -1.57581,3.46457 -3.51967,3.46457 v 0 c -1.94388,0 -3.51968,-1.55113 -3.51968,-3.46457 z"
     fill-rule="evenodd"
     id="path2159"
     style="stroke-width:0.5" />
  <path
     stroke="#595959"
     stroke-width="0.5"
     stroke-linejoin="round"
     stroke-linecap="butt"
     d="m 154.01514,100.50459 v 0 c 0,-1.91342 1.5758,-3.46457 3.51968,-3.46457 v 0 c 0.93347,0 1.82872,0.36502 2.48879,1.01476 0.66006,0.64973 1.03088,1.53096 1.03088,2.44981 v 0 c 0,1.91344 -1.57581,3.46457 -3.51967,3.46457 v 0 c -1.94388,0 -3.51968,-1.55113 -3.51968,-3.46457 z"
     fill-rule="evenodd"
     id="path2161" />
  <path
     fill="#d9ead3"
     d="m 182.07811,100.50459 v 0 c 0,-1.91342 1.57584,-3.46457 3.51969,-3.46457 v 0 c 0.9335,0 1.82873,0.36502 2.4888,1.01476 0.66006,0.64973 1.03088,1.53096 1.03088,2.44981 v 0 c 0,1.91344 -1.57581,3.46457 -3.51968,3.46457 v 0 c -1.94385,0 -3.51969,-1.55113 -3.51969,-3.46457 z"
     fill-rule="evenodd"
     id="path2163"
     style="stroke-width:0.5" />
  <path
     stroke="#595959"
     stroke-width="0.5"
     stroke-linejoin="round"
     stroke-linecap="butt"
     d="m 182.07811,100.50459 v 0 c 0,-1.91342 1.57584,-3.46457 3.51969,-3.46457 v 0 c 0.9335,0 1.82873,0.36502 2.4888,1.01476 0.66006,0.64973 1.03088,1.53096 1.03088,2.44981 v 0 c 0,1.91344 -1.57581,3.46457 -3.51968,3.46457 v 0 c -1.94385,0 -3.51969,-1.55113 -3.51969,-3.46457 z"
     fill-rule="evenodd"
     id="path2165" />
  <path
     fill="#f4cccc"
     d="m 83.857656,59.01443 v 0 c 0,-1.91342 1.57582,-3.46457 3.51968,-3.46457 v 0 c 0.93347,0 1.82872,0.36502 2.4888,1.01476 0.66007,0.64973 1.03089,1.53096 1.03089,2.44981 v 0 c 0,1.91344 -1.57583,3.46457 -3.51969,3.46457 v 0 c -1.94386,0 -3.51968,-1.55113 -3.51968,-3.46457 z"
     fill-rule="evenodd"
     id="path2167"
     style="stroke-width:0.5" />
  <path
     stroke="#595959"
     stroke-width="0.5"
     stroke-linejoin="round"
     stroke-linecap="butt"
     d="m 83.857656,59.01443 v 0 c 0,-1.91342 1.57582,-3.46457 3.51968,-3.46457 v 0 c 0.93347,0 1.82872,0.36502 2.4888,1.01476 0.66007,0.64973 1.03089,1.53096 1.03089,2.44981 v 0 c 0,1.91344 -1.57583,3.46457 -3.51969,3.46457 v 0 c -1.94386,0 -3.51968,-1.55113 -3.51968,-3.46457 z"
     fill-rule="evenodd"
     id="path2169" />
  <path
     fill="#f4cccc"
     d="m 111.92064,59.01443 v 0 c 0,-1.91342 1.57582,-3.46457 3.51968,-3.46457 v 0 c 0.93349,0 1.82872,0.36502 2.4888,1.01476 0.66007,0.64973 1.03089,1.53096 1.03089,2.44981 v 0 c 0,1.91344 -1.57581,3.46457 -3.51969,3.46457 v 0 c -1.94386,0 -3.51968,-1.55113 -3.51968,-3.46457 z"
     fill-rule="evenodd"
     id="path2171"
     style="stroke-width:0.5" />
  <path
     stroke="#595959"
     stroke-width="0.5"
     stroke-linejoin="round"
     stroke-linecap="butt"
     d="m 111.92064,59.01443 v 0 c 0,-1.91342 1.57582,-3.46457 3.51968,-3.46457 v 0 c 0.93349,0 1.82872,0.36502 2.4888,1.01476 0.66007,0.64973 1.03089,1.53096 1.03089,2.44981 v 0 c 0,1.91344 -1.57581,3.46457 -3.51969,3.46457 v 0 c -1.94386,0 -3.51968,-1.55113 -3.51968,-3.46457 z"
     fill-rule="evenodd"
     id="path2173" />
  <path
     fill="#d9ead3"
     d="m 210.14114,100.56102 v 0 c 0,-1.91342 1.5758,-3.46455 3.51968,-3.46455 v 0 c 0.93347,0 1.82871,0.365 2.48877,1.01474 0.66007,0.64974 1.03092,1.53096 1.03092,2.44981 v 0 c 0,1.91344 -1.57584,3.46457 -3.51969,3.46457 v 0 c -1.94388,0 -3.51968,-1.55113 -3.51968,-3.46457 z"
     fill-rule="evenodd"
     id="path2175"
     style="stroke-width:0.5" />
  <path
     stroke="#595959"
     stroke-width="0.5"
     stroke-linejoin="round"
     stroke-linecap="butt"
     d="m 210.14114,100.56102 v 0 c 0,-1.91342 1.5758,-3.46455 3.51968,-3.46455 v 0 c 0.93347,0 1.82871,0.365 2.48877,1.01474 0.66007,0.64974 1.03092,1.53096 1.03092,2.44981 v 0 c 0,1.91344 -1.57584,3.46457 -3.51969,3.46457 v 0 c -1.94388,0 -3.51968,-1.55113 -3.51968,-3.46457 z"
     fill-rule="evenodd"
     id="path2177" />
  <path
     fill="#d9ead3"
     d="m 238.20412,100.56102 v 0 c 0,-1.91342 1.57581,-3.46455 3.51969,-3.46455 v 0 c 0.93347,0 1.8287,0.365 2.48877,1.01474 0.66009,0.64974 1.03091,1.53096 1.03091,2.44981 v 0 c 0,1.91344 -1.57584,3.46457 -3.51968,3.46457 v 0 c -1.94388,0 -3.51969,-1.55113 -3.51969,-3.46457 z"
     fill-rule="evenodd"
     id="path2179"
     style="stroke-width:0.5" />
  <path
     stroke="#595959"
     stroke-width="0.5"
     stroke-linejoin="round"
     stroke-linecap="butt"
     d="m 238.20412,100.56102 v 0 c 0,-1.91342 1.57581,-3.46455 3.51969,-3.46455 v 0 c 0.93347,0 1.8287,0.365 2.48877,1.01474 0.66009,0.64974 1.03091,1.53096 1.03091,2.44981 v 0 c 0,1.91344 -1.57584,3.46457 -3.51968,3.46457 v 0 c -1.94388,0 -3.51969,-1.55113 -3.51969,-3.46457 z"
     fill-rule="evenodd"
     id="path2181" />
  <path
     fill="#f4cccc"
     d="m 27.904896,114.25918 v 0 c 0,-1.91342 1.57582,-3.46457 3.51968,-3.46457 v 0 c 0.93349,0 1.82872,0.36502 2.4888,1.01476 0.66007,0.64973 1.03089,1.53096 1.03089,2.44981 v 0 c 0,1.91344 -1.57581,3.46457 -3.51969,3.46457 v 0 c -1.94386,0 -3.51968,-1.55113 -3.51968,-3.46457 z"
     fill-rule="evenodd"
     id="path2183"
     style="stroke-width:0.5" />
  <path
     stroke="#595959"
     stroke-width="0.5"
     stroke-linejoin="round"
     stroke-linecap="butt"
     d="m 27.904896,114.25918 v 0 c 0,-1.91342 1.57582,-3.46457 3.51968,-3.46457 v 0 c 0.93349,0 1.82872,0.36502 2.4888,1.01476 0.66007,0.64973 1.03089,1.53096 1.03089,2.44981 v 0 c 0,1.91344 -1.57581,3.46457 -3.51969,3.46457 v 0 c -1.94386,0 -3.51968,-1.55113 -3.51968,-3.46457 z"
     fill-rule="evenodd"
     id="path2185" />
  <path
     fill="#f4cccc"
     d="m 55.967886,114.25918 v 0 c 0,-1.91342 1.57582,-3.46457 3.51968,-3.46457 v 0 c 0.93349,0 1.82874,0.36502 2.4888,1.01476 0.66007,0.64973 1.03089,1.53096 1.03089,2.44981 v 0 c 0,1.91344 -1.57581,3.46457 -3.51969,3.46457 v 0 c -1.94386,0 -3.51968,-1.55113 -3.51968,-3.46457 z"
     fill-rule="evenodd"
     id="path2187"
     style="stroke-width:0.5" />
  <path
     stroke="#595959"
     stroke-width="0.5"
     stroke-linejoin="round"
     stroke-linecap="butt"
     d="m 55.967886,114.25918 v 0 c 0,-1.91342 1.57582,-3.46457 3.51968,-3.46457 v 0 c 0.93349,0 1.82874,0.36502 2.4888,1.01476 0.66007,0.64973 1.03089,1.53096 1.03089,2.44981 v 0 c 0,1.91344 -1.57581,3.46457 -3.51969,3.46457 v 0 c -1.94386,0 -3.51968,-1.55113 -3.51968,-3.46457 z"
     fill-rule="evenodd"
     id="path2189" />
  <path
     fill="#f4cccc"
     d="m 84.030886,114.25918 v 0 c 0,-1.91342 1.5758,-3.46457 3.51968,-3.46457 v 0 c 0.93347,0 1.82872,0.36502 2.48879,1.01476 0.66006,0.64973 1.0309,1.53096 1.0309,2.44981 v 0 c 0,1.91344 -1.57583,3.46457 -3.51969,3.46457 v 0 c -1.94388,0 -3.51968,-1.55113 -3.51968,-3.46457 z"
     fill-rule="evenodd"
     id="path2191"
     style="stroke-width:0.5" />
  <path
     stroke="#595959"
     stroke-width="0.5"
     stroke-linejoin="round"
     stroke-linecap="butt"
     d="m 84.030886,114.25918 v 0 c 0,-1.91342 1.5758,-3.46457 3.51968,-3.46457 v 0 c 0.93347,0 1.82872,0.36502 2.48879,1.01476 0.66006,0.64973 1.0309,1.53096 1.0309,2.44981 v 0 c 0,1.91344 -1.57583,3.46457 -3.51969,3.46457 v 0 c -1.94388,0 -3.51968,-1.55113 -3.51968,-3.46457 z"
     fill-rule="evenodd"
     id="path2193" />
  <path
     fill="#f4cccc"
     d="m 140.15687,114.25918 v 0 c 0,-1.91342 1.57582,-3.46457 3.51968,-3.46457 v 0 c 0.93349,0 1.82872,0.36502 2.4888,1.01476 0.66007,0.64973 1.03089,1.53096 1.03089,2.44981 v 0 c 0,1.91344 -1.57581,3.46457 -3.51969,3.46457 v 0 c -1.94386,0 -3.51968,-1.55113 -3.51968,-3.46457 z"
     fill-rule="evenodd"
     id="path2195"
     style="stroke-width:0.5" />
  <path
     stroke="#595959"
     stroke-width="0.5"
     stroke-linejoin="round"
     stroke-linecap="butt"
     d="m 140.15687,114.25918 v 0 c 0,-1.91342 1.57582,-3.46457 3.51968,-3.46457 v 0 c 0.93349,0 1.82872,0.36502 2.4888,1.01476 0.66007,0.64973 1.03089,1.53096 1.03089,2.44981 v 0 c 0,1.91344 -1.57581,3.46457 -3.51969,3.46457 v 0 c -1.94386,0 -3.51968,-1.55113 -3.51968,-3.46457 z"
     fill-rule="evenodd"
     id="path2197" />
  <path
     fill="#d9ead3"
     d="m 168.21987,114.25918 v 0 c 0,-1.91342 1.5758,-3.46457 3.51968,-3.46457 v 0 c 0.93347,0 1.82871,0.36502 2.48877,1.01476 0.6601,0.64973 1.03092,1.53096 1.03092,2.44981 v 0 c 0,1.91344 -1.57584,3.46457 -3.51969,3.46457 v 0 c -1.94388,0 -3.51968,-1.55113 -3.51968,-3.46457 z"
     fill-rule="evenodd"
     id="path2199"
     style="stroke-width:0.5" />
  <path
     stroke="#595959"
     stroke-width="0.5"
     stroke-linejoin="round"
     stroke-linecap="butt"
     d="m 168.21987,114.25918 v 0 c 0,-1.91342 1.5758,-3.46457 3.51968,-3.46457 v 0 c 0.93347,0 1.82871,0.36502 2.48877,1.01476 0.6601,0.64973 1.03092,1.53096 1.03092,2.44981 v 0 c 0,1.91344 -1.57584,3.46457 -3.51969,3.46457 v 0 c -1.94388,0 -3.51968,-1.55113 -3.51968,-3.46457 z"
     fill-rule="evenodd"
     id="path2201" />
  <path
     fill="#d9ead3"
     d="m 196.28286,114.31561 v 0 c 0,-1.91342 1.5758,-3.46455 3.51968,-3.46455 v 0 c 0.93347,0 1.82871,0.365 2.4888,1.01474 0.66007,0.64973 1.03089,1.53096 1.03089,2.44981 v 0 c 0,1.91344 -1.57581,3.46457 -3.51969,3.46457 v 0 c -1.94388,0 -3.51968,-1.55113 -3.51968,-3.46457 z"
     fill-rule="evenodd"
     id="path2203"
     style="stroke-width:0.5" />
  <path
     stroke="#595959"
     stroke-width="0.5"
     stroke-linejoin="round"
     stroke-linecap="butt"
     d="m 196.28286,114.31561 v 0 c 0,-1.91342 1.5758,-3.46455 3.51968,-3.46455 v 0 c 0.93347,0 1.82871,0.365 2.4888,1.01474 0.66007,0.64973 1.03089,1.53096 1.03089,2.44981 v 0 c 0,1.91344 -1.57581,3.46457 -3.51969,3.46457 v 0 c -1.94388,0 -3.51968,-1.55113 -3.51968,-3.46457 z"
     fill-rule="evenodd"
     id="path2205" />
  <path
     fill="#d9ead3"
     d="m 224.34584,114.31561 v 0 c 0,-1.91342 1.5758,-3.46455 3.51968,-3.46455 v 0 c 0.93347,0 1.82874,0.365 2.4888,1.01474 0.66007,0.64973 1.03089,1.53096 1.03089,2.44981 v 0 c 0,1.91344 -1.57581,3.46457 -3.51969,3.46457 v 0 c -1.94388,0 -3.51968,-1.55113 -3.51968,-3.46457 z"
     fill-rule="evenodd"
     id="path2207"
     style="stroke-width:0.5" />
  <path
     stroke="#595959"
     stroke-width="0.5"
     stroke-linejoin="round"
     stroke-linecap="butt"
     d="m 224.34584,114.31561 v 0 c 0,-1.91342 1.5758,-3.46455 3.51968,-3.46455 v 0 c 0.93347,0 1.82874,0.365 2.4888,1.01474 0.66007,0.64973 1.03089,1.53096 1.03089,2.44981 v 0 c 0,1.91344 -1.57581,3.46457 -3.51969,3.46457 v 0 c -1.94388,0 -3.51968,-1.55113 -3.51968,-3.46457 z"
     fill-rule="evenodd"
     id="path2209" />
  <path
     fill="#d9ead3"
     d="m 252.35109,114.14633 v 0 c 0,-1.91343 1.5758,-3.46457 3.51968,-3.46457 v 0 c 0.93347,0 1.82874,0.36502 2.4888,1.01474 0.66007,0.64974 1.03089,1.53096 1.03089,2.44983 v 0 c 0,1.91343 -1.57581,3.46457 -3.51969,3.46457 v 0 c -1.94388,0 -3.51968,-1.55115 -3.51968,-3.46457 z"
     fill-rule="evenodd"
     id="path2211"
     style="stroke-width:0.5" />
  <path
     stroke="#595959"
     stroke-width="0.5"
     stroke-linejoin="round"
     stroke-linecap="butt"
     d="m 252.35109,114.14633 v 0 c 0,-1.91343 1.5758,-3.46457 3.51968,-3.46457 v 0 c 0.93347,0 1.82874,0.36502 2.4888,1.01474 0.66007,0.64974 1.03089,1.53096 1.03089,2.44983 v 0 c 0,1.91343 -1.57581,3.46457 -3.51969,3.46457 v 0 c -1.94388,0 -3.51968,-1.55115 -3.51968,-3.46457 z"
     fill-rule="evenodd"
     id="path2213" />
  <path
     fill="#f4cccc"
     d="m 55.910146,86.74934 v 0 c 0,-1.91342 1.57582,-3.46457 3.51968,-3.46457 v 0 c 0.93349,0 1.82872,0.36502 2.4888,1.01476 0.66007,0.64973 1.03089,1.53096 1.03089,2.44981 v 0 c 0,1.91344 -1.57581,3.46457 -3.51969,3.46457 v 0 c -1.94386,0 -3.51968,-1.55113 -3.51968,-3.46457 z"
     fill-rule="evenodd"
     id="path2215"
     style="stroke-width:0.5" />
  <path
     stroke="#595959"
     stroke-width="0.5"
     stroke-linejoin="round"
     stroke-linecap="butt"
     d="m 55.910146,86.74934 v 0 c 0,-1.91342 1.57582,-3.46457 3.51968,-3.46457 v 0 c 0.93349,0 1.82872,0.36502 2.4888,1.01476 0.66007,0.64973 1.03089,1.53096 1.03089,2.44981 v 0 c 0,1.91344 -1.57581,3.46457 -3.51969,3.46457 v 0 c -1.94386,0 -3.51968,-1.55113 -3.51968,-3.46457 z"
     fill-rule="evenodd"
     id="path2217" />
  <path
     fill="#f4cccc"
     d="m 83.973136,86.74934 v 0 c 0,-1.91342 1.57582,-3.46457 3.51968,-3.46457 v 0 c 0.93349,0 1.82874,0.36502 2.4888,1.01476 0.66007,0.64973 1.03089,1.53096 1.03089,2.44981 v 0 c 0,1.91344 -1.57581,3.46457 -3.51969,3.46457 v 0 c -1.94386,0 -3.51968,-1.55113 -3.51968,-3.46457 z"
     fill-rule="evenodd"
     id="path2219"
     style="stroke-width:0.5" />
  <path
     stroke="#595959"
     stroke-width="0.5"
     stroke-linejoin="round"
     stroke-linecap="butt"
     d="m 83.973136,86.74934 v 0 c 0,-1.91342 1.57582,-3.46457 3.51968,-3.46457 v 0 c 0.93349,0 1.82874,0.36502 2.4888,1.01476 0.66007,0.64973 1.03089,1.53096 1.03089,2.44981 v 0 c 0,1.91344 -1.57581,3.46457 -3.51969,3.46457 v 0 c -1.94386,0 -3.51968,-1.55113 -3.51968,-3.46457 z"
     fill-rule="evenodd"
     id="path2221" />
  <path
     fill="#f4cccc"
     d="m 112.03614,86.74934 v 0 c 0,-1.91342 1.5758,-3.46457 3.51968,-3.46457 v 0 c 0.93347,0 1.82872,0.36502 2.48879,1.01476 0.66008,0.64973 1.0309,1.53096 1.0309,2.44981 v 0 c 0,1.91344 -1.57583,3.46457 -3.51969,3.46457 v 0 c -1.94388,0 -3.51968,-1.55113 -3.51968,-3.46457 z"
     fill-rule="evenodd"
     id="path2223"
     style="stroke-width:0.5" />
  <path
     stroke="#595959"
     stroke-width="0.5"
     stroke-linejoin="round"
     stroke-linecap="butt"
     d="m 112.03614,86.74934 v 0 c 0,-1.91342 1.5758,-3.46457 3.51968,-3.46457 v 0 c 0.93347,0 1.82872,0.36502 2.48879,1.01476 0.66008,0.64973 1.0309,1.53096 1.0309,2.44981 v 0 c 0,1.91344 -1.57583,3.46457 -3.51969,3.46457 v 0 c -1.94388,0 -3.51968,-1.55113 -3.51968,-3.46457 z"
     fill-rule="evenodd"
     id="path2225" />
  <path
     fill="#d9ead3"
     d="m 168.16214,86.74934 v 0 c 0,-1.91342 1.5758,-3.46457 3.51968,-3.46457 v 0 c 0.93347,0 1.82871,0.36502 2.48877,1.01476 0.6601,0.64973 1.03092,1.53096 1.03092,2.44981 v 0 c 0,1.91344 -1.57584,3.46457 -3.51969,3.46457 v 0 c -1.94388,0 -3.51968,-1.55113 -3.51968,-3.46457 z"
     fill-rule="evenodd"
     id="path2227"
     style="stroke-width:0.5" />
  <path
     stroke="#595959"
     stroke-width="0.5"
     stroke-linejoin="round"
     stroke-linecap="butt"
     d="m 168.16214,86.74934 v 0 c 0,-1.91342 1.5758,-3.46457 3.51968,-3.46457 v 0 c 0.93347,0 1.82871,0.36502 2.48877,1.01476 0.6601,0.64973 1.03092,1.53096 1.03092,2.44981 v 0 c 0,1.91344 -1.57584,3.46457 -3.51969,3.46457 v 0 c -1.94388,0 -3.51968,-1.55113 -3.51968,-3.46457 z"
     fill-rule="evenodd"
     id="path2229" />
  <path
     fill="#d9ead3"
     d="m 196.22512,86.74934 v 0 c 0,-1.91342 1.5758,-3.46457 3.51968,-3.46457 v 0 c 0.93347,0 1.82871,0.36502 2.48877,1.01476 0.6601,0.64973 1.03092,1.53096 1.03092,2.44981 v 0 c 0,1.91344 -1.57584,3.46457 -3.51969,3.46457 v 0 c -1.94388,0 -3.51968,-1.55113 -3.51968,-3.46457 z"
     fill-rule="evenodd"
     id="path2231"
     style="stroke-width:0.5" />
  <path
     stroke="#595959"
     stroke-width="0.5"
     stroke-linejoin="round"
     stroke-linecap="butt"
     d="m 196.22512,86.74934 v 0 c 0,-1.91342 1.5758,-3.46457 3.51968,-3.46457 v 0 c 0.93347,0 1.82871,0.36502 2.48877,1.01476 0.6601,0.64973 1.03092,1.53096 1.03092,2.44981 v 0 c 0,1.91344 -1.57584,3.46457 -3.51969,3.46457 v 0 c -1.94388,0 -3.51968,-1.55113 -3.51968,-3.46457 z"
     fill-rule="evenodd"
     id="path2233" />
  <path
     fill="#d9ead3"
     d="m 224.28811,86.80577 v 0 c 0,-1.91342 1.5758,-3.46455 3.51968,-3.46455 v 0 c 0.93347,0 1.82871,0.365 2.4888,1.01474 0.66007,0.64973 1.03089,1.53096 1.03089,2.44981 v 0 c 0,1.91344 -1.57581,3.46457 -3.51969,3.46457 v 0 c -1.94388,0 -3.51968,-1.55113 -3.51968,-3.46457 z"
     fill-rule="evenodd"
     id="path2235"
     style="stroke-width:0.5" />
  <path
     stroke="#595959"
     stroke-width="0.5"
     stroke-linejoin="round"
     stroke-linecap="butt"
     d="m 224.28811,86.80577 v 0 c 0,-1.91342 1.5758,-3.46455 3.51968,-3.46455 v 0 c 0.93347,0 1.82871,0.365 2.4888,1.01474 0.66007,0.64973 1.03089,1.53096 1.03089,2.44981 v 0 c 0,1.91344 -1.57581,3.46457 -3.51969,3.46457 v 0 c -1.94388,0 -3.51968,-1.55113 -3.51968,-3.46457 z"
     fill-rule="evenodd"
     id="path2237" />
  <path
     fill="#000000"
     fill-opacity="0"
     d="m 154.8089,103.64577 -9.05513,8.91339"
     fill-rule="evenodd"
     id="path2239"
     style="stroke-width:0.5" />
  <path
     stroke="#595959"
     stroke-width="0.5"
     stroke-linejoin="round"
     stroke-linecap="butt"
     d="m 154.80889,103.64577 -6.91713,6.80888"
     fill-rule="evenodd"
     id="path2241" />
  <path
     fill="#595959"
     stroke="#595959"
     stroke-width="0.5"
     stroke-linecap="butt"
     d="m 147.31241,109.86607 -1.03772,2.18032 2.19641,-1.00319 z"
     fill-rule="evenodd"
     id="path2243" />
  <path
     fill="#000000"
     fill-opacity="0"
     d="M 23.626606,283.67528 360.00454,-50.08852"
     fill-rule="evenodd"
     id="path2245" />
  <path
     stroke="#595959"
     stroke-width="1"
     stroke-linejoin="round"
     stroke-linecap="butt"
     stroke-dasharray="4, 3"
     d="M 132.05765,126.13686 254.18451,4.7294943"
     fill-rule="evenodd"
     id="path2247"
     sodipodi:nodetypes="cc" />
  <path
     fill="#e06666"
     d="m 125.95214,100.50459 v 0 c 0,-1.91342 1.57582,-3.46457 3.51968,-3.46457 v 0 c 0.93349,0 1.82874,0.36502 2.4888,1.01476 0.66007,0.64973 1.03089,1.53096 1.03089,2.44981 v 0 c 0,1.91344 -1.57581,3.46457 -3.51969,3.46457 v 0 c -1.94386,0 -3.51968,-1.55113 -3.51968,-3.46457 z"
     fill-rule="evenodd"
     id="path2249"
     style="stroke-width:0.5" />
  <path
     stroke="#595959"
     stroke-width="0.5"
     stroke-linejoin="round"
     stroke-linecap="butt"
     d="m 125.95214,100.50459 v 0 c 0,-1.91342 1.57582,-3.46457 3.51968,-3.46457 v 0 c 0.93349,0 1.82874,0.36502 2.4888,1.01476 0.66007,0.64973 1.03089,1.53096 1.03089,2.44981 v 0 c 0,1.91344 -1.57581,3.46457 -3.51969,3.46457 v 0 c -1.94386,0 -3.51968,-1.55113 -3.51968,-3.46457 z"
     fill-rule="evenodd"
     id="path2251" />
  <path
     fill="#e06666"
     d="m 112.09388,114.25918 v 0 c 0,-1.91342 1.57582,-3.46457 3.51968,-3.46457 v 0 c 0.93347,0 1.82872,0.36502 2.48879,1.01476 0.66008,0.64973 1.0309,1.53096 1.0309,2.44981 v 0 c 0,1.91344 -1.57583,3.46457 -3.51969,3.46457 v 0 c -1.94386,0 -3.51968,-1.55113 -3.51968,-3.46457 z"
     fill-rule="evenodd"
     id="path2253"
     style="stroke-width:0.5" />
  <path
     stroke="#595959"
     stroke-width="0.5"
     stroke-linejoin="round"
     stroke-linecap="butt"
     d="m 112.09388,114.25918 v 0 c 0,-1.91342 1.57582,-3.46457 3.51968,-3.46457 v 0 c 0.93347,0 1.82872,0.36502 2.48879,1.01476 0.66008,0.64973 1.0309,1.53096 1.0309,2.44981 v 0 c 0,1.91344 -1.57583,3.46457 -3.51969,3.46457 v 0 c -1.94386,0 -3.51968,-1.55113 -3.51968,-3.46457 z"
     fill-rule="evenodd"
     id="path2255" />
  <path
     fill="#e06666"
     d="m 140.09913,86.74934 v 0 c 0,-1.91342 1.57582,-3.46457 3.51968,-3.46457 v 0 c 0.93347,0 1.82872,0.36502 2.48879,1.01476 0.66008,0.64973 1.0309,1.53096 1.0309,2.44981 v 0 c 0,1.91344 -1.57583,3.46457 -3.51969,3.46457 v 0 c -1.94386,0 -3.51968,-1.55113 -3.51968,-3.46457 z"
     fill-rule="evenodd"
     id="path2257"
     style="stroke-width:0.5" />
  <path
     stroke="#595959"
     stroke-width="0.5"
     stroke-linejoin="round"
     stroke-linecap="butt"
     d="m 140.09913,86.74934 v 0 c 0,-1.91342 1.57582,-3.46457 3.51968,-3.46457 v 0 c 0.93347,0 1.82872,0.36502 2.48879,1.01476 0.66008,0.64973 1.0309,1.53096 1.0309,2.44981 v 0 c 0,1.91344 -1.57583,3.46457 -3.51969,3.46457 v 0 c -1.94386,0 -3.51968,-1.55113 -3.51968,-3.46457 z"
     fill-rule="evenodd"
     id="path2259" />
  <path
     fill="#e06666"
     d="m 97.889146,72.76968 v 0 c 0,-1.91342 1.57582,-3.46457 3.519684,-3.46457 v 0 c 0.93349,0 1.82872,0.36502 2.4888,1.01476 0.66007,0.64973 1.03089,1.53096 1.03089,2.44981 v 0 c 0,1.91344 -1.57583,3.46457 -3.51969,3.46457 v 0 c -1.943864,0 -3.519684,-1.55113 -3.519684,-3.46457 z"
     fill-rule="evenodd"
     id="path2261"
     style="stroke-width:0.5" />
  <path
     stroke="#595959"
     stroke-width="0.5"
     stroke-linejoin="round"
     stroke-linecap="butt"
     d="m 97.889146,72.76968 v 0 c 0,-1.91342 1.57582,-3.46457 3.519684,-3.46457 v 0 c 0.93349,0 1.82872,0.36502 2.4888,1.01476 0.66007,0.64973 1.03089,1.53096 1.03089,2.44981 v 0 c 0,1.91344 -1.57583,3.46457 -3.51969,3.46457 v 0 c -1.943864,0 -3.519684,-1.55113 -3.519684,-3.46457 z"
     fill-rule="evenodd"
     id="path2263" />
  <path
     fill="#e06666"
     d="m 41.763166,100.50459 v 0 c 0,-1.91342 1.57581,-3.46457 3.51969,-3.46457 v 0 c 0.93347,0 1.82872,0.36502 2.48878,1.01476 0.66007,0.64973 1.0309,1.53096 1.0309,2.44981 v 0 c 0,1.91344 -1.57582,3.46457 -3.51968,3.46457 v 0 c -1.94388,0 -3.51969,-1.55113 -3.51969,-3.46457 z"
     fill-rule="evenodd"
     id="path2265"
     style="stroke-width:0.5" />
  <path
     stroke="#595959"
     stroke-width="0.5"
     stroke-linejoin="round"
     stroke-linecap="butt"
     d="m 41.763166,100.50459 v 0 c 0,-1.91342 1.57581,-3.46457 3.51969,-3.46457 v 0 c 0.93347,0 1.82872,0.36502 2.48878,1.01476 0.66007,0.64973 1.0309,1.53096 1.0309,2.44981 v 0 c 0,1.91344 -1.57582,3.46457 -3.51968,3.46457 v 0 c -1.94388,0 -3.51969,-1.55113 -3.51969,-3.46457 z"
     fill-rule="evenodd"
     id="path2267" />
  <path
     fill="#e06666"
     d="m 69.826156,100.50459 v 0 c 0,-1.91342 1.57581,-3.46457 3.51969,-3.46457 v 0 c 0.93347,0 1.82872,0.36502 2.48878,1.01476 0.66008,0.64973 1.0309,1.53096 1.0309,2.44981 v 0 c 0,1.91344 -1.57582,3.46457 -3.51968,3.46457 v 0 c -1.94388,0 -3.51969,-1.55113 -3.51969,-3.46457 z"
     fill-rule="evenodd"
     id="path2269"
     style="stroke-width:0.5" />
  <path
     stroke="#595959"
     stroke-width="0.5"
     stroke-linejoin="round"
     stroke-linecap="butt"
     d="m 69.826156,100.50459 v 0 c 0,-1.91342 1.57581,-3.46457 3.51969,-3.46457 v 0 c 0.93347,0 1.82872,0.36502 2.48878,1.01476 0.66008,0.64973 1.0309,1.53096 1.0309,2.44981 v 0 c 0,1.91344 -1.57582,3.46457 -3.51968,3.46457 v 0 c -1.94388,0 -3.51969,-1.55113 -3.51969,-3.46457 z"
     fill-rule="evenodd"
     id="path2271" />
  <path
     fill="#e06666"
     d="m 97.889146,100.50459 v 0 c 0,-1.91342 1.57582,-3.46457 3.519684,-3.46457 v 0 c 0.93349,0 1.82872,0.36502 2.4888,1.01476 0.66007,0.64973 1.03089,1.53096 1.03089,2.44981 v 0 c 0,1.91344 -1.57583,3.46457 -3.51969,3.46457 v 0 c -1.943864,0 -3.519684,-1.55113 -3.519684,-3.46457 z"
     fill-rule="evenodd"
     id="path2273"
     style="stroke-width:0.5" />
  <path
     stroke="#595959"
     stroke-width="0.5"
     stroke-linejoin="round"
     stroke-linecap="butt"
     d="m 97.889146,100.50459 v 0 c 0,-1.91342 1.57582,-3.46457 3.519684,-3.46457 v 0 c 0.93349,0 1.82872,0.36502 2.4888,1.01476 0.66007,0.64973 1.03089,1.53096 1.03089,2.44981 v 0 c 0,1.91344 -1.57583,3.46457 -3.51969,3.46457 v 0 c -1.943864,0 -3.519684,-1.55113 -3.519684,-3.46457 z"
     fill-rule="evenodd"
     id="path2275" />
  <path
     fill="#e06666"
     d="m 27.904896,114.25918 v 0 c 0,-1.91342 1.57582,-3.46457 3.51968,-3.46457 v 0 c 0.93349,0 1.82872,0.36502 2.4888,1.01476 0.66007,0.64973 1.03089,1.53096 1.03089,2.44981 v 0 c 0,1.91344 -1.57581,3.46457 -3.51969,3.46457 v 0 c -1.94386,0 -3.51968,-1.55113 -3.51968,-3.46457 z"
     fill-rule="evenodd"
     id="path2277"
     style="stroke-width:0.5" />
  <path
     stroke="#595959"
     stroke-width="0.5"
     stroke-linejoin="round"
     stroke-linecap="butt"
     d="m 27.904896,114.25918 v 0 c 0,-1.91342 1.57582,-3.46457 3.51968,-3.46457 v 0 c 0.93349,0 1.82872,0.36502 2.4888,1.01476 0.66007,0.64973 1.03089,1.53096 1.03089,2.44981 v 0 c 0,1.91344 -1.57581,3.46457 -3.51969,3.46457 v 0 c -1.94386,0 -3.51968,-1.55113 -3.51968,-3.46457 z"
     fill-rule="evenodd"
     id="path2279" />
  <path
     fill="#e06666"
     d="m 55.967886,114.25918 v 0 c 0,-1.91342 1.57582,-3.46457 3.51968,-3.46457 v 0 c 0.93349,0 1.82874,0.36502 2.4888,1.01476 0.66007,0.64973 1.03089,1.53096 1.03089,2.44981 v 0 c 0,1.91344 -1.57581,3.46457 -3.51969,3.46457 v 0 c -1.94386,0 -3.51968,-1.55113 -3.51968,-3.46457 z"
     fill-rule="evenodd"
     id="path2281"
     style="stroke-width:0.5" />
  <path
     stroke="#595959"
     stroke-width="0.5"
     stroke-linejoin="round"
     stroke-linecap="butt"
     d="m 55.967886,114.25918 v 0 c 0,-1.91342 1.57582,-3.46457 3.51968,-3.46457 v 0 c 0.93349,0 1.82874,0.36502 2.4888,1.01476 0.66007,0.64973 1.03089,1.53096 1.03089,2.44981 v 0 c 0,1.91344 -1.57581,3.46457 -3.51969,3.46457 v 0 c -1.94386,0 -3.51968,-1.55113 -3.51968,-3.46457 z"
     fill-rule="evenodd"
     id="path2283" />
  <path
     fill="#e06666"
     d="m 84.030886,114.25918 v 0 c 0,-1.91342 1.5758,-3.46457 3.51968,-3.46457 v 0 c 0.93347,0 1.82872,0.36502 2.48879,1.01476 0.66006,0.64973 1.0309,1.53096 1.0309,2.44981 v 0 c 0,1.91344 -1.57583,3.46457 -3.51969,3.46457 v 0 c -1.94388,0 -3.51968,-1.55113 -3.51968,-3.46457 z"
     fill-rule="evenodd"
     id="path2285"
     style="stroke-width:0.5" />
  <path
     stroke="#595959"
     stroke-width="0.5"
     stroke-linejoin="round"
     stroke-linecap="butt"
     d="m 84.030886,114.25918 v 0 c 0,-1.91342 1.5758,-3.46457 3.51968,-3.46457 v 0 c 0.93347,0 1.82872,0.36502 2.48879,1.01476 0.66006,0.64973 1.0309,1.53096 1.0309,2.44981 v 0 c 0,1.91344 -1.57583,3.46457 -3.51969,3.46457 v 0 c -1.94388,0 -3.51968,-1.55113 -3.51968,-3.46457 z"
     fill-rule="evenodd"
     id="path2287" />
  <path
     fill="#e06666"
     d="m 83.973136,86.74934 v 0 c 0,-1.91342 1.57582,-3.46457 3.51968,-3.46457 v 0 c 0.93349,0 1.82874,0.36502 2.4888,1.01476 0.66007,0.64973 1.03089,1.53096 1.03089,2.44981 v 0 c 0,1.91344 -1.57581,3.46457 -3.51969,3.46457 v 0 c -1.94386,0 -3.51968,-1.55113 -3.51968,-3.46457 z"
     fill-rule="evenodd"
     id="path2289"
     style="stroke-width:0.5" />
  <path
     stroke="#595959"
     stroke-width="0.5"
     stroke-linejoin="round"
     stroke-linecap="butt"
     d="m 83.973136,86.74934 v 0 c 0,-1.91342 1.57582,-3.46457 3.51968,-3.46457 v 0 c 0.93349,0 1.82874,0.36502 2.4888,1.01476 0.66007,0.64973 1.03089,1.53096 1.03089,2.44981 v 0 c 0,1.91344 -1.57581,3.46457 -3.51969,3.46457 v 0 c -1.94386,0 -3.51968,-1.55113 -3.51968,-3.46457 z"
     fill-rule="evenodd"
     id="path2291" />
  <path
     fill="#e06666"
     d="m 112.03614,86.74934 v 0 c 0,-1.91342 1.5758,-3.46457 3.51968,-3.46457 v 0 c 0.93347,0 1.82872,0.36502 2.48879,1.01476 0.66008,0.64973 1.0309,1.53096 1.0309,2.44981 v 0 c 0,1.91344 -1.57583,3.46457 -3.51969,3.46457 v 0 c -1.94388,0 -3.51968,-1.55113 -3.51968,-3.46457 z"
     fill-rule="evenodd"
     id="path2293"
     style="stroke-width:0.5" />
  <path
     stroke="#595959"
     stroke-width="0.5"
     stroke-linejoin="round"
     stroke-linecap="butt"
     d="m 112.03614,86.74934 v 0 c 0,-1.91342 1.5758,-3.46457 3.51968,-3.46457 v 0 c 0.93347,0 1.82872,0.36502 2.48879,1.01476 0.66008,0.64973 1.0309,1.53096 1.0309,2.44981 v 0 c 0,1.91344 -1.57583,3.46457 -3.51969,3.46457 v 0 c -1.94388,0 -3.51968,-1.55113 -3.51968,-3.46457 z"
     fill-rule="evenodd"
     id="path2295" />
  <path
     fill="#000000"
     fill-opacity="0"
     d="m 133.22248,86.63867 v 0 c 0,-5.6533 4.65342,-10.23622 10.39371,-10.23622 v 0 c 2.75657,0 5.40025,1.07846 7.34945,2.99812 1.94919,1.91967 3.04424,4.52329 3.04424,7.2381 v 0 c 0,5.65331 -4.65341,10.23622 -10.39369,10.23622 v 0 c -5.74028,0 -10.39371,-4.58291 -10.39371,-10.23622 z"
     fill-rule="evenodd"
     id="path2297"
     style="stroke-width:0.5" />
  <path
     stroke="#cc0000"
     stroke-width="1.5"
     stroke-linejoin="round"
     stroke-linecap="butt"
     d="m 133.22248,86.63867 v 0 c 0,-5.6533 4.65342,-10.23622 10.39371,-10.23622 v 0 c 2.75657,0 5.40025,1.07846 7.34945,2.99812 1.94919,1.91967 3.04424,4.52329 3.04424,7.2381 v 0 c 0,5.65331 -4.65341,10.23622 -10.39369,10.23622 v 0 c -5.74028,0 -10.39371,-4.58291 -10.39371,-10.23622 z"
     fill-rule="evenodd"
     id="path2299" />
  <path
     fill="#000000"
     fill-opacity="0"
     d="m 132.13264,70.58237 8.88189,-9.11811"
     fill-rule="evenodd"
     id="path2301"
     style="stroke-width:0.5" />
  <path
     stroke="#595959"
     stroke-width="1.5"
     stroke-linejoin="round"
     stroke-linecap="butt"
     d="m 132.13264,70.58237 8.88189,-9.11811"
     fill-rule="evenodd"
     id="path2303" />
  <text
     xml:space="preserve"
     style="font-size:10.6667px;line-height:1.25;font-family:sans-serif;letter-spacing:0px;fill:#595959;fill-opacity:1;"
     x="224.4424"
     y="-122.2235"
     id="text999"
     transform="rotate(45)"><tspan
       sodipodi:role="line"
       id="tspan997"
       x="224.4424"
       y="-122.2235"
       style="font-size:10.6667px;fill:#595959;fill-opacity:1;">Frontier</tspan></text>
  <text
     xml:space="preserve"
     style="font-size:10.6667px;line-height:1.25;font-family:sans-serif;letter-spacing:0px;fill:#595959;fill-opacity:1"
     x="120.15652"
     y="194.21614"
     id="text1003"
     transform="rotate(-45)"><tspan
       sodipodi:role="line"
       id="tspan1001"
       x="120.15652"
       y="194.21614"
       style="font-size:10.6667px;fill:#595959;fill-opacity:1">Limiting line</tspan></text>
</svg>
